Coordinates
version=1
nRows=17
nColumns=38
inDegrees=no

Units are S.I. units (second, meters, Newtons, ...)
If the header above contains a line with 'inDegrees', this indicates whether rotational values are in degrees (yes) or radians (no).

endheader
time	pelvis_tilt	pelvis_list	pelvis_rotation	pelvis_tx	pelvis_ty	pelvis_tz	hip_flexion_r	hip_adduction_r	hip_rotation_r	knee_angle_r	ankle_angle_r	subtalar_angle_r	mtp_angle_r	hip_flexion_l	hip_adduction_l	hip_rotation_l	knee_angle_l	ankle_angle_l	subtalar_angle_l	mtp_angle_l	lumbar_extension	lumbar_bending	lumbar_rotation	arm_flex_r	arm_add_r	arm_rot_r	elbow_flex_r	pro_sup_r	wrist_flex_r	wrist_dev_r	arm_flex_l	arm_add_l	arm_rot_l	elbow_flex_l	pro_sup_l	wrist_flex_l	wrist_dev_l
0	2.67746	1.44486	-1.18407	0.769886	-0.201812	0.957486	-0.322492	0.0833137	-0.04763	0.0184406	0.118296	0	0	0.394771	-0.161104	-0.295367	0.568785	0.146761	0	0	-0.189398	0.0782765	0.0680586	0.0954543	-0.218244	0.267247	0.473466	1.04578	0	0	-0.252179	-0.169024	0.244269	0.655313	0.870524	0	0
0.01	2.67596	1.44919	-1.18186	0.76909	-0.192895	0.956041	-0.325162	0.0805584	-0.0459489	0.0237655	0.123514	0	0	0.397983	-0.154673	-0.304171	0.526858	0.152861	0	0	-0.186107	0.0769206	0.0660421	0.101254	-0.216929	0.269201	0.472239	1.04616	0	0	-0.253425	-0.166534	0.25002	0.647657	0.869376	0	0
0.02	2.69981	1.45352	-1.20479	0.7682	-0.183556	0.954711	-0.327714	0.0745604	-0.0500273	0.0326247	0.131328	0	0	0.396393	-0.143314	-0.310372	0.480209	0.158914	0	0	-0.184229	0.0721646	0.0640147	0.105403	-0.214836	0.268307	0.471514	1.04695	0	0	-0.254921	-0.164683	0.255556	0.640252	0.867783	0	0
0.03	2.7339	1.45739	-1.23754	0.76719	-0.174041	0.953395	-0.329748	0.0675783	-0.0582747	0.0445799	0.141114	0	0	0.392753	-0.129763	-0.312377	0.432515	0.164392	0	0	-0.18336	0.0665926	0.0616948	0.108588	-0.212449	0.265004	0.472311	1.04825	0	0	-0.256594	-0.162902	0.259884	0.633729	0.865764	0	0
0.04	2.77244	1.46128	-1.27439	0.766093	-0.164393	0.952024	-0.330931	0.060137	-0.0690247	0.0587093	0.152211	0	0	0.388262	-0.115001	-0.309938	0.384515	0.168113	0	0	-0.182318	0.060776	0.0590223	0.111136	-0.209677	0.260235	0.473541	1.05005	0	0	-0.25863	-0.161056	0.262279	0.628099	0.863151	0	0
0.05	2.81314	1.46513	-1.31349	0.764941	-0.154551	0.950587	-0.331643	0.0523797	-0.0813727	0.0741268	0.164002	0	0	0.382632	-0.099761	-0.303096	0.336239	0.169922	0	0	-0.180867	0.0549684	0.0567095	0.11271	-0.206828	0.254608	0.474978	1.05221	0	0	-0.261118	-0.159209	0.263408	0.623438	0.86025	0	0
0.06	2.85321	1.46871	-1.35253	0.763795	-0.144498	0.949097	-0.332325	0.0445334	-0.0945083	0.0902623	0.176147	0	0	0.376021	-0.0852042	-0.293154	0.28919	0.16976	0	0	-0.179156	0.0493941	0.0552916	0.113051	-0.204261	0.248908	0.476633	1.05522	0	0	-0.264048	-0.157364	0.264226	0.619328	0.857646	0	0
0.07	2.89095	1.47197	-1.38986	0.762645	-0.134214	0.947564	-0.333194	0.0367196	-0.107985	0.106807	0.188309	0	0	0.369263	-0.0721698	-0.281892	0.24581	0.167849	0	0	-0.177106	0.0443227	0.0548925	0.112205	-0.202016	0.243256	0.478666	1.05875	0	0	-0.266997	-0.155497	0.265493	0.614922	0.855376	0	0
0.08	2.92852	1.47457	-1.42795	0.761505	-0.123675	0.946035	-0.334923	0.0285749	-0.120833	0.123394	0.200054	0	0	0.362266	-0.0607782	-0.271106	0.207649	0.164255	0	0	-0.175194	0.0395315	0.0558756	0.110135	-0.20027	0.237795	0.48148	1.06238	0	0	-0.270149	-0.153776	0.267419	0.610887	0.853196	0	0
0.09	2.96642	1.47608	-1.46756	0.760399	-0.112866	0.944568	-0.338108	0.0199286	-0.132348	0.139848	0.210987	0	0	0.355495	-0.0513286	-0.262941	0.177481	0.159927	0	0	-0.173857	0.0348946	0.0583192	0.106955	-0.199078	0.233294	0.484948	1.06611	0	0	-0.273675	-0.152299	0.269717	0.607663	0.850715	0	0
0.1	3.00222	1.47641	-1.50602	0.759367	-0.101828	0.943182	-0.342779	0.0110574	-0.14256	0.155958	0.220622	0	0	0.350536	-0.0445094	-0.258512	0.159203	0.156962	0	0	-0.173209	0.0304806	0.0618754	0.102986	-0.198214	0.230044	0.488626	1.06974	0	0	-0.277505	-0.151184	0.272232	0.605419	0.847943	0	0
0.11	3.03104	1.47597	-1.53822	0.758395	-0.0905729	0.941838	-0.348363	0.00240371	-0.151308	0.171791	0.228816	0	0	0.348719	-0.0406145	-0.258141	0.154694	0.157193	0	0	-0.172987	0.0266103	0.0667198	0.0980992	-0.197669	0.227338	0.492478	1.07305	0	0	-0.281503	-0.150432	0.274832	0.604142	0.844886	0	0
0.12	3.05179	1.47539	-1.56311	0.757485	-0.0791093	0.9405	-0.353748	-0.00603369	-0.158452	0.188249	0.235865	0	0	0.350558	-0.039576	-0.261474	0.163756	0.16082	0	0	-0.172256	0.023359	0.0725392	0.092244	-0.197474	0.225337	0.495912	1.07659	0	0	-0.285879	-0.149992	0.277812	0.603412	0.841422	0	0
0.13	3.06369	1.47518	-1.57986	0.756643	-0.0674199	0.939131	-0.358036	-0.014206	-0.164376	0.206116	0.24181	0	0	0.355714	-0.0411352	-0.266877	0.184403	0.166717	0	0	-0.170355	0.0208285	0.0790543	0.0853866	-0.197524	0.224037	0.498869	1.08073	0	0	-0.290838	-0.149904	0.281218	0.603241	0.837479	0	0
0.14	3.0664	1.47577	-1.58788	0.75583	-0.0555134	0.937729	-0.360452	-0.0220605	-0.169454	0.225963	0.246634	0	0	0.363749	-0.0449182	-0.272918	0.214609	0.173205	0	0	-0.167057	0.0191376	0.0862822	0.0778884	-0.197635	0.223529	0.500754	1.08494	0	0	-0.29615	-0.150158	0.285213	0.603413	0.833082	0	0
0.15	3.06017	1.47767	-1.58725	0.755027	-0.0433579	0.936263	-0.360369	-0.0295776	-0.173819	0.248026	0.250327	0	0	0.374497	-0.0506538	-0.279318	0.2529	0.178118	0	0	-0.161648	0.0182864	0.0941433	0.0693948	-0.19792	0.223576	0.501241	1.08956	0	0	-0.301852	-0.150632	0.289496	0.603525	0.828481	0	0
0.16	3.04301	1.48145	-1.57615	0.75419	-0.0308703	0.934619	-0.357036	-0.0367669	-0.177346	0.272521	0.253003	0	0	0.3869	-0.0578935	-0.285576	0.295134	0.182037	0	0	-0.152932	0.0185768	0.102481	0.0595309	-0.198531	0.224133	0.500491	1.09486	0	0	-0.308767	-0.151192	0.293672	0.604139	0.823942	0	0
